# xmcd
#
# Track frame offsets:
#	150
#	33367
#	83030
#	107260
#	147225
#	208615
#	255377
#
# Disc length: 3660 seconds
#
# Revision: 1
# Processed by: cddbd v1.5.1PL0 Copyright (c) Steve Scherf et al.
# Submitted via: CDex 1.50Beta5
#
DISCID=500e4a07
DTITLE=ベート-ベン シュ-ウベルト - 運命 未完成
DYEAR=1900
DGENRE=clasic
TTITLE0=運命       第一楽章
TTITLE1=第二楽章
TTITLE2=第三楽章
TTITLE3=第四楽章
TTITLE4=未完成      第一楽章
TTITLE5=第二楽章
TTITLE6=フィガロの結婚   序曲
EXTD=
EXTT0=
EXTT1=
EXTT2=
EXTT3=
EXTT4=
EXTT5=
EXTT6=
PLAYORDER=
